<svg xmlns="http://www.w3.org/2000/svg" version="1.1" xmlns:xlink="http://www.w3.org/1999/xlink" xmlns:svgjs="http://svgjs.dev/svgjs" width="1000" height="1000" viewBox="0 0 1000 1000"><g transform="matrix(1,0,0,1,-0.14221556886212738,-0.14221556886229791)"><svg viewBox="0 0 334 334" data-background-color="#ffffff" preserveAspectRatio="xMidYMid meet" height="1000" width="1000" xmlns="http://www.w3.org/2000/svg" xmlns:xlink="http://www.w3.org/1999/xlink"><g id="tight-bounds" transform="matrix(1,0,0,1,0.04749999999998522,0.04750000000001364)"><svg viewBox="0 0 333.90454557049503 333.90454557049503" height="333.90454557049503" width="333.90454557049503"><g><svg></svg></g><g><svg viewBox="0 0 333.90454557049503 333.90454557049503" height="333.90454557049503" width="333.90454557049503"><g><path d="M0 166.952c0-92.205 74.747-166.952 166.952-166.952 92.205 0 166.952 74.747 166.953 166.952 0 92.205-74.747 166.952-166.953 166.953-92.205 0-166.952-74.747-166.952-166.953zM166.952 316.63c82.665 0 149.677-67.013 149.678-149.678 0-82.665-67.013-149.677-149.678-149.677-82.665 0-149.677 67.013-149.677 149.677 0 82.665 67.013 149.677 149.677 149.678z" data-fill-palette-color="tertiary" fill="#ff0000" stroke="transparent"></path><ellipse rx="160.27418187383762" ry="160.27418187383762" cx="166.95227278524752" cy="166.95227278524752" fill="#ff0000" stroke="transparent" stroke-width="0" fill-opacity="1" data-fill-palette-color="tertiary"></ellipse></g><g transform="matrix(1,0,0,1,80.30157026533847,71.17305217166896)"><svg viewBox="0 0 173.3014050398181 191.55844122715712" height="191.55844122715712" width="173.3014050398181"><g><svg viewBox="0 0 173.3014050398181 191.55844122715712" height="191.55844122715712" width="173.3014050398181"><g><svg viewBox="0 0 173.3014050398181 191.55844122715712" height="191.55844122715712" width="173.3014050398181"><g><svg viewBox="0 0 173.3014050398181 191.55844122715712" height="191.55844122715712" width="173.3014050398181"><g><svg viewBox="0 0 173.3014050398181 191.55844122715712" height="191.55844122715712" width="173.3014050398181"><g><svg viewBox="0 0 173.3014050398181 191.55844122715712" height="191.55844122715712" width="173.3014050398181"><g transform="matrix(1,0,0,1,0,0)"><svg width="173.3014050398181" viewBox="1.850000023841858 -33.95000076293945 30.850000381469727 34.10000228881836" height="191.55844122715712" data-palette-color="#ffffff"><path d="M1.85-33.95L1.85-33.95Q2.8-33.9 4.35-33.85 5.9-33.8 7.2-33.8L7.2-33.8Q8.5-33.8 10.4-33.83 12.3-33.85 14.23-33.88 16.15-33.9 17.55-33.9L17.55-33.9Q22.3-33.9 25.18-33.1 28.05-32.3 29.38-30.6 30.7-28.9 30.7-26.25L30.7-26.25Q30.7-23.3 28.68-21.15 26.65-19 22.9-18.45L22.9-18.45Q26.25-18.25 28.43-17.23 30.6-16.2 31.65-14.33 32.7-12.45 32.7-9.75L32.7-9.75Q32.7-6.9 31.23-4.7 29.75-2.5 26.5-1.25 23.25 0 17.85 0L17.85 0Q15.85 0 13.73 0 11.6 0 9.5 0.03 7.4 0.05 5.48 0.08 3.55 0.1 1.85 0.15L1.85 0.15Q1.85-0.85 1.93-1.78 2-2.7 2.2-3.3L2.2-3.3Q3.55-3.4 4.28-3.83 5-4.25 5.28-5.38 5.55-6.5 5.55-8.7L5.55-8.7 5.55-25.3Q5.55-27.4 5.28-28.45 5-29.5 4.28-29.93 3.55-30.35 2.15-30.5L2.15-30.5Q2-31.15 1.93-32.18 1.85-33.2 1.85-33.95ZM13.5-29.75L14.2-31.95 14.2-8.4Q14.2-6.25 14.65-5.15 15.1-4.05 15.95-3.68 16.8-3.3 17.95-3.3L17.95-3.3Q20.25-3.3 21.68-4.85 23.1-6.4 23.1-9.15L23.1-9.15Q23.1-11.1 22.55-12.38 22-13.65 20.98-14.38 19.95-15.1 18.53-15.43 17.1-15.75 15.4-15.75L15.4-15.75 12.55-15.75 12.55-19.1 15.95-19.1Q18-19.1 19.33-19.8 20.65-20.5 21.3-21.8 21.95-23.1 21.95-24.9L21.95-24.9Q21.95-26.75 21.18-28 20.4-29.25 19.18-29.85 17.95-30.45 16.45-30.45L16.45-30.45Q15.6-30.45 14.93-30.3 14.25-30.15 13.5-29.75L13.5-29.75Z" opacity="1" transform="matrix(1,0,0,1,0,0)" fill="#ffffff" class="undefined-text-0" data-fill-palette-color="quaternary" id="text-0"></path></svg></g></svg></g></svg></g></svg></g><g></g></svg></g></svg></g></svg></g></svg></g><defs></defs></svg><rect width="333.90454557049503" height="333.90454557049503" fill="none" stroke="none" visibility="hidden"></rect></g></svg></g></svg>